<svg width="1000" height="1000" viewBox="0 0 1000 1000" fill="none" xmlns="http://www.w3.org/2000/svg">
<g clip-path="url(#clip0_1_5)">
<rect width="1000" height="1000" fill="white"/>
<rect width="1000" height="1000" fill="#EED824"/>
<path d="M444.425 534.964H517.496V778.764C517.496 801.3 512.431 820.876 502.301 837.494C492.285 854.111 478.343 866.916 460.473 875.908C442.604 884.899 421.832 889.395 398.157 889.395C377.101 889.395 357.979 885.696 340.793 878.298C323.72 870.786 310.176 859.404 300.16 844.152C290.144 828.787 285.193 809.495 285.306 786.276H358.89C359.118 795.495 360.996 803.405 364.524 810.007C368.166 816.494 373.117 821.502 379.377 825.031C385.751 828.445 393.263 830.153 401.913 830.153C411.019 830.153 418.702 828.218 424.962 824.348C431.336 820.364 436.173 814.56 439.474 806.934C442.774 799.308 444.425 789.918 444.425 778.764V534.964Z" fill="black"/>
<path d="M641.786 534.964L726.296 800.617H729.54L814.221 534.964H896.17L775.636 884.615H680.37L559.666 534.964H641.786Z" fill="black"/>
</g>
<defs>
<clipPath id="clip0_1_5">
<rect width="1000" height="1000" fill="white"/>
</clipPath>
</defs>
</svg>
