<svg width="48" height="48" viewBox="0 0 52 52" fill="none" xmlns="http://www.w3.org/2000/svg">
<rect width="52" height="52" fill="#EED824"/>
<path d="M23.1101 27.8181H26.9098V40.4957C26.9098 41.6675 26.6464 42.6855 26.1197 43.5497C25.5988 44.4138 24.8738 45.0796 23.9446 45.5472C23.0154 46.0147 21.9352 46.2485 20.7042 46.2485C19.6092 46.2485 18.6149 46.0562 17.7212 45.6715C16.8334 45.2808 16.1291 44.689 15.6083 43.8959C15.0875 43.0969 14.83 42.0937 14.8359 40.8863H18.6623C18.6741 41.3657 18.7718 41.777 18.9552 42.1203C19.1446 42.4577 19.4021 42.7181 19.7276 42.9016C20.059 43.0791 20.4497 43.1679 20.8995 43.1679C21.373 43.1679 21.7725 43.0673 22.098 42.8661C22.4294 42.6589 22.681 42.3571 22.8526 41.9605C23.0242 41.564 23.1101 41.0757 23.1101 40.4957V27.8181Z" fill="black"/>
<path d="M33.3728 27.8181L37.7674 41.632H37.9361L42.3395 27.8181H46.6008L40.3331 45.9999H35.3792L29.1026 27.8181H33.3728Z" fill="black"/>
</svg>
